PathFileType	3	(X/Y/Z)	walking_3__view1_aligned.trc
DataRate	CameraRate	NumFrames	NumMarkers	Units	OrigDataRate	OrigDataStartFrame	OrigNumFrames
100.0	100.0	13	19	mm	100.0	3400	6348
Frame#	Time	pelvis			neck			head			hip_left			hip_right			knee_left			knee_right			ankle_left			ankle_right			heel_left			heel_right			toe_left			toe_right			shoulder_left			shoulder_right			elbow_left			elbow_right			wrist_left			wrist_right			
		X1	Y1	Z1	X2	Y2	Z2	X3	Y3	Z3	X4	Y4	Z4	X5	Y5	Z5	X6	Y6	Z6	X7	Y7	Z7	X8	Y8	Z8	X9	Y9	Z9	X10	Y10	Z10	X11	Y11	Z11	X12	Y12	Z12	X13	Y13	Z13	X14	Y14	Z14	X15	Y15	Z15	X16	Y16	Z16	X17	Y17	Z17	X18	Y18	Z18	X19	Y19	Z19	
3400	33.99000	85.512623	945.172238	-8.820500	62.182940	1506.420150	77.688203	95.713956	1583.983145	224.625093	165.922506	946.364028	-2.913052	5.102526	943.980413	-14.727758	171.786285	555.379346	232.794877	-66.749114	497.610053	-24.159143	183.789168	141.138355	258.824709	-90.645193	174.418939	-279.392378	188.981271	88.485621	233.077421	-85.893687	153.232523	-330.608970	145.285415	110.869493	446.885175	-101.364451	36.041477	-170.797173	236.655878	1470.833632	11.391138	-118.806453	1443.012172	66.154471	289.218182	1194.955834	-105.577938	-186.371363	1155.333967	105.264057	358.324015	924.996497	-156.388509	-143.574743	982.880100	318.396185
3401	34.00000	89.933706	945.173357	-11.536819	66.881334	1506.504103	74.614854	99.635726	1584.203419	221.677528	170.170782	946.497003	-5.738457	9.696451	943.849683	-17.335024	174.592772	554.243777	226.231781	-62.764511	498.190449	-24.363631	187.647324	138.079392	255.816505	-88.250426	178.223915	-284.941518	192.929862	84.903588	230.404620	-83.663383	158.034224	-336.654556	150.042976	109.393754	445.143071	-98.754066	37.149735	-179.147994	241.634802	1470.599772	9.106460	-114.068393	1443.081634	62.616376	293.555125	1194.686834	-107.354420	-182.032003	1155.455153	101.962258	361.578996	924.636352	-158.954658	-140.959166	983.450277	315.545345
3402	34.01000	94.354789	945.174477	-14.253139	71.579728	1506.588057	71.541505	103.557495	1584.423694	218.729963	174.419058	946.629978	-8.563862	14.290376	943.718953	-19.942290	177.399258	553.108207	219.668685	-58.779909	498.770845	-24.568119	191.505480	135.020429	252.808301	-85.855659	182.028892	-290.490658	196.878453	81.321555	227.731820	-81.433079	162.835926	-342.700141	154.800536	107.918014	443.400968	-96.143680	38.257993	-187.498815	246.613726	1470.365913	6.821782	-109.330332	1443.151095	59.078281	297.892068	1194.417834	-109.130903	-177.692642	1155.576340	98.660459	364.833978	924.276208	-161.520807	-138.343590	984.020454	312.694504
3403	34.02000	98.775872	945.175597	-16.969458	76.278122	1506.672010	68.468157	107.479265	1584.643968	215.782397	178.667335	946.762952	-11.389266	18.884301	943.588223	-22.549555	180.205744	551.972638	213.105590	-54.795307	499.351240	-24.772607	195.363636	131.961465	249.800097	-83.460892	185.833868	-296.039797	200.827044	77.739522	225.059019	-79.202774	167.637627	-348.745726	159.558096	106.442275	441.658865	-93.533294	39.366251	-195.849636	251.592651	1470.132053	4.537104	-104.592271	1443.220556	55.540186	302.229011	1194.148833	-110.907386	-173.353281	1155.697526	95.358660	368.088959	923.916064	-164.086955	-135.728013	984.590631	309.843664
3404	34.03000	103.196954	945.176716	-19.685778	80.976517	1506.755964	65.394808	111.401034	1584.864242	212.834832	182.915611	946.895927	-14.214671	23.478226	943.457494	-25.156821	183.012230	550.837069	206.542494	-50.810704	499.931636	-24.977095	199.221792	128.902502	246.791893	-81.066125	189.638845	-301.588937	204.775635	74.157490	222.386219	-76.972470	172.439328	-354.791312	164.315657	104.966536	439.916762	-90.922908	40.474509	-204.200458	256.571575	1469.898194	2.252425	-99.854211	1443.290018	52.002090	306.565953	1193.879833	-112.683869	-169.013921	1155.818712	92.056861	371.343941	923.555919	-166.653104	-133.112436	985.160808	306.992824
3405	34.04000	107.618037	945.177836	-22.402097	85.674911	1506.839917	62.321459	115.322804	1585.084516	209.887267	187.163887	947.028902	-17.040076	28.072151	943.326764	-27.764086	185.818716	549.701500	199.979399	-46.826102	500.512032	-25.181583	203.079948	125.843539	243.783690	-78.671358	193.443822	-307.138077	208.724226	70.575457	219.713418	-74.742166	177.241029	-360.836897	169.073217	103.490796	438.174659	-88.312522	41.582767	-212.551279	261.550499	1469.664334	-0.032253	-95.116150	1443.359479	48.463995	310.902896	1193.610833	-114.460352	-164.674560	1155.939899	88.755061	374.598923	923.195775	-169.219253	-130.496860	985.730986	304.141984
3406	34.05000	112.039120	945.178955	-25.118416	90.373305	1506.923871	59.248110	119.244573	1585.304790	206.939702	191.412163	947.161877	-19.865481	32.666076	943.196034	-30.371352	188.625202	548.565930	193.416303	-42.841499	501.092428	-25.386071	206.938104	122.784576	240.775486	-76.276591	197.248798	-312.687217	212.672817	66.993424	217.040618	-72.511862	182.042730	-366.882482	173.830777	102.015057	436.432556	-85.702136	42.691025	-220.902100	266.529424	1469.430475	-2.316931	-90.378089	1443.428941	44.925900	315.239839	1193.341833	-116.236835	-160.335200	1156.061085	85.453262	377.853904	922.835631	-171.785402	-127.881283	986.301163	301.291144
3407	34.06000	115.604880	945.534756	-27.611462	93.932806	1507.331181	56.990523	122.491071	1585.601080	204.826634	194.776786	947.656358	-22.622436	36.432974	943.413153	-32.600488	190.859418	547.093114	185.193680	-38.623118	502.743854	-21.707020	207.713206	121.627951	230.926378	-72.753742	199.868775	-308.881581	213.310219	65.825797	207.096448	-69.212490	184.891129	-363.057506	174.719179	100.971214	426.802601	-81.342011	44.973171	-217.929719	270.396111	1469.813907	-3.573294	-86.735415	1443.428595	41.688139	319.792058	1193.568317	-115.097955	-155.570250	1155.957674	79.857405	381.151454	923.655372	-167.230045	-124.948754	983.980163	290.600523
3408	34.07000	119.170640	945.890556	-30.104508	97.492308	1507.738490	54.732935	125.737569	1585.897370	202.713566	198.141409	948.150840	-25.379392	40.199871	943.630272	-34.829625	193.093633	545.620298	176.971058	-34.404737	504.395280	-18.027970	208.488308	120.471326	221.077270	-69.230892	202.488752	-305.075945	213.947620	64.658171	197.152278	-65.913118	187.739528	-359.232530	175.607581	99.927372	417.172647	-76.981887	47.255317	-214.957338	274.262797	1470.197339	-4.829656	-83.092741	1443.428249	38.450378	324.344277	1193.794800	-113.959076	-150.805300	1155.854262	74.261548	384.449004	924.475114	-162.674688	-122.016226	981.659164	279.909901
3409	34.08000	122.736400	946.246356	-32.597554	101.051809	1508.145800	52.475347	128.984067	1586.193659	200.600498	201.506031	948.645322	-28.136347	43.966769	943.847391	-37.058761	195.327849	544.147482	168.748435	-30.186355	506.046707	-14.348920	209.263409	119.314702	211.228162	-65.708042	205.108729	-301.270309	214.585021	63.490544	187.208108	-62.613747	190.587927	-355.407554	176.495983	98.883529	407.542692	-72.621763	49.537463	-211.984957	278.129484	1470.580771	-6.086019	-79.450067	1443.427903	35.212617	328.896497	1194.021283	-112.820196	-146.040350	1155.750851	68.665690	387.746555	925.294856	-158.119331	-119.083697	979.338165	269.219280
3410	34.09000	126.302160	946.602157	-35.090600	104.611311	1508.553109	50.217759	132.230565	1586.489949	198.487430	204.870654	949.139804	-30.893303	47.733667	944.064510	-39.287898	197.562065	542.674667	160.525812	-25.967974	507.698133	-10.669869	210.038511	118.158077	201.379054	-62.185192	207.728706	-297.464673	215.222422	62.322917	177.263938	-59.314375	193.436325	-351.582577	177.384385	97.839687	397.912737	-68.261639	51.819609	-209.012576	281.996171	1470.964203	-7.342381	-75.807393	1443.427556	31.974855	333.448716	1194.247767	-111.681317	-141.275400	1155.647440	63.069833	391.044105	926.114597	-153.563974	-116.151168	977.017165	258.528659
3411	34.10000	129.867920	946.957957	-37.583646	108.170812	1508.960419	47.960171	135.477063	1586.786239	196.374362	208.235276	949.634286	-33.650258	51.500564	944.281629	-41.517034	199.796280	541.201851	152.303190	-21.749593	509.349559	-6.990819	210.813613	117.001452	191.529946	-58.662342	210.348683	-293.659037	215.859823	61.155291	167.319769	-56.015003	196.284724	-347.757601	178.272787	96.795844	388.282783	-63.901515	54.101755	-206.040195	285.862858	1471.347635	-8.598744	-72.164719	1443.427210	28.737094	338.000935	1194.474250	-110.542437	-136.510450	1155.544028	57.473975	394.341655	926.934339	-149.008616	-113.218640	974.696166	247.838038
3412	34.11000	133.433680	947.313758	-40.076692	111.730314	1509.367728	45.702583	138.723561	1587.082529	194.261294	211.599899	950.128767	-36.407214	55.267462	944.498748	-43.746171	202.030496	539.729035	144.080567	-17.531212	511.000986	-3.311768	211.588715	115.844828	181.680838	-55.139492	212.968660	-289.853401	216.497224	59.987664	157.375599	-52.715631	199.133123	-343.932625	179.161189	95.752002	378.652828	-59.541390	56.383901	-203.067814	289.729545	1471.731067	-9.855106	-68.522045	1443.426864	25.499333	342.553154	1194.700734	-109.403558	-131.745500	1155.440617	51.878118	397.639205	927.754081	-144.453259	-110.286111	972.375167	237.147417
